<?xml version="1.0" encoding="UTF-8"?>
<svg id="Layer_1" xmlns="http://www.w3.org/2000/svg" version="1.1" viewBox="0 0 100 100">
  <!-- Generator: Adobe Illustrator 30.0.0, SVG Export Plug-In . SVG Version: 2.1.1 Build 123)  -->
  <defs>
    <style>
      .st0 {
        fill-rule: evenodd;
      }
    </style>
  </defs>
  <path class="st0" d="M50,12c3.2,0,5.8,2.6,5.8,5.8v2.6h29.4c4.1,0,6.3,5,3.3,8h0c-1.6,1.6-3.4,1.4-5.5,1.4l10.3,16.2c.3.3.4.8.4,1.2-.5,6.4-5.8,13.1-13.9,13.1s-13.3-6.6-13.9-13.1l.4-1.2,10.3-16.1h-20.7v40.4c4.2,1.3,7.8,4.1,10.3,7.7h5.5c4.4,0,6.8,5.4,3.6,8.6h0c-.9.9-2.2,1.5-3.6,1.5H28.4c-4.4,0-6.8-5.4-3.6-8.6h0c.9-.9,2.2-1.5,3.6-1.5h5.5c2.4-3.7,6.1-6.4,10.3-7.7V29.8h-20.7l10.3,16.1c.3.3.4.8.4,1.2-.5,6.4-5.8,13.1-13.9,13.1s-13.3-6.6-13.9-13.1l.4-1.2,10.3-16.1c-2.1,0-3.8.3-5.5-1.4h0c-1.8-1.8-1.8-4.8,0-6.6h0c.9-.9,2-1.4,3.3-1.4h29.4c0-2.6-.3-4.7,1.7-6.7h0c1.1-1.1,2.5-1.7,4.1-1.7h0ZM55.8,24v2.2h29.4c.3,0,.6-.1.8-.3h0c.7-.7.2-1.9-.8-1.9h-29.4ZM44.2,26.2v-2.2H14.8c-.3,0-.6.1-.8.3h0c-.4.4-.4,1.1,0,1.6h0c.2.2.5.3.8.3h29.4ZM29,45.3l-8.9-13.9-8.9,13.9h17.7ZM20.2,48.8h-10c3.1,10.6,16.9,10.6,19.9,0h-10ZM88.7,45.3l-8.9-13.9-8.9,13.9h17.7ZM79.8,48.8h-10c3.1,10.6,16.9,10.6,19.9,0h-10ZM53.7,73.3c-5.5-1.3-11.3.3-15.3,4.6h23.1c-2.1-2.3-4.8-3.9-7.8-4.6ZM50.6,69.3c.6,0,1.1,0,1.6.1V17.8c0-1.2-1-2.2-2.2-2.2s-1.6.5-1.6.7c-.9.9-.7,2.5-.7,4.2v49h2.8ZM72.6,84c.9-.9.3-2.5-1-2.5H28.4c-2.2.4-1.7,2.9,0,2.9h43.1c.4,0,.8-.2,1-.4h0Z"/>
</svg>