<?xml version="1.0" encoding="UTF-8"?>
<svg id="Layer_1" xmlns="http://www.w3.org/2000/svg" version="1.1" viewBox="0 0 100 100">
  <!-- Generator: Adobe Illustrator 30.0.0, SVG Export Plug-In . SVG Version: 2.1.1 Build 123)  -->
  <defs>
    <style>
      .st0 {
        stroke-width: 2px;
      }

      .st0, .st1 {
        stroke: #000;
        stroke-miterlimit: 10;
      }

      .st1 {
        stroke-width: .8px;
      }
    </style>
  </defs>
  <g>
    <path class="st0" d="M69.1,21.1h-.6v-4.2c0-1.2-.5-2.3-1.5-3.1-1-.8-2.2-1-3.4-.8l-35.3,8.1s0,0,0,0c-1.4.3-2.5,1.5-2.5,3v18c0,.6.5,1.1,1.1,1.1s1.1-.5,1.1-1.1v-18c0-.5.4-.9.9-.9h26.4c.6,0,1.1-.5,1.1-1.1s-.5-1.1-1.1-1.1h-17l25.8-5.9c.5-.1,1.1,0,1.5.3.4.3.7.9.7,1.4v4.2h-6.6c-.6,0-1.1.5-1.1,1.1s.5,1.1,1.1,1.1h9.4c1.6,0,2.9,1.3,2.9,2.9v45c0,.6.5,1.1,1.1,1.1s1.1-.5,1.1-1.1V26.2c0-2.8-2.3-5.1-5.1-5.1h0Z"/>
    <path class="st0" d="M73.1,74.4c-.6,0-1.1.5-1.1,1.1v6.5c0,1.6-1.3,2.9-2.9,2.9H28.9c-.5,0-.9-.4-.9-.9v-37.4c0-.6-.5-1.1-1.1-1.1s-1.1.5-1.1,1.1v37.4c0,1.7,1.4,3.1,3.1,3.1h40.2c2.8,0,5.1-2.3,5.1-5.1v-6.5c0-.6-.5-1.1-1.1-1.1h0Z"/>
    <path class="st0" d="M37.2,68.1h25.5c.6,0,1.1-.5,1.1-1.1s-.5-1.1-1.1-1.1h-25.5c-.6,0-1.1.5-1.1,1.1s.5,1.1,1.1,1.1h0Z"/>
    <path class="st0" d="M42.1,72.2c-.6,0-1.1.5-1.1,1.1s.5,1.1,1.1,1.1h15.9c.6,0,1.1-.5,1.1-1.1s-.5-1.1-1.1-1.1h-15.9Z"/>
  </g>
  <path class="st1" d="M59.7,32.2h-19.4c-2.3,0-4.2,1.9-4.2,4.2v15.2c0,2.3,1.9,4.2,4.2,4.2h19.4c2.3,0,4.2-1.9,4.2-4.2v-15.2c0-2.3-1.9-4.2-4.2-4.2h0ZM44.5,35h4.2v5.9l-1.4-.8c-.2-.1-.4-.2-.7-.2s-.5,0-.7.2l-1.4.8v-5.9ZM61.1,51.6c0,.8-.6,1.4-1.4,1.4h-19.4c-.8,0-1.4-.6-1.4-1.4v-15.2c0-.8.6-1.4,1.4-1.4h1.4v8.3c0,.5.3.9.7,1.2.4.3.9.3,1.4,0l2.8-1.6,2.8,1.6c.2.1.4.2.7.2s.5,0,.7-.2c.4-.2.7-.7.7-1.2v-8.3h8.3c.8,0,1.4.6,1.4,1.4v15.2h0Z"/>
</svg>