<?xml version="1.0" encoding="UTF-8"?>
<svg id="Layer_1" xmlns="http://www.w3.org/2000/svg" version="1.1" viewBox="0 0 100 100">
  <!-- Generator: Adobe Illustrator 30.0.0, SVG Export Plug-In . SVG Version: 2.1.1 Build 123)  -->
  <defs>
    <style>
      .st0 {
        fill: #fff;
      }

      .st0, .st1 {
        fill-rule: evenodd;
      }

      .st2 {
        stroke: #000;
        stroke-linejoin: round;
        stroke-width: 2px;
      }
    </style>
  </defs>
  <path class="st2" d="M84.5,45.4c-1,0-2,.3-2.8,1-.8.6-1.4,1.5-1.6,2.5h-8.1c-.2-5.1-2.2-9.9-5.7-13.7l5.7-5.7c1.3.8,2.9.9,4.2.3s2.4-1.9,2.6-3.3c.3-1.5-.2-3-1.3-4.1-1.1-1.1-2.6-1.5-4.1-1.3-1.5.3-2.7,1.3-3.3,2.6s-.5,3,.3,4.2l-5.7,5.7h0c-3.8-3.4-8.6-5.4-13.7-5.7v-8.1c1.5-.4,2.7-1.4,3.2-2.8s.3-3-.5-4.2c-.9-1.2-2.3-2-3.8-2s-2.9.7-3.8,2c-.9,1.2-1,2.8-.5,4.2s1.7,2.5,3.2,2.8v8.1c-5.1.2-9.9,2.2-13.7,5.7l-5.7-5.7c.8-1.3.9-2.9.3-4.2-.6-1.4-1.9-2.4-3.3-2.6-1.5-.3-3,.2-4.1,1.3-1.1,1.1-1.5,2.6-1.3,4.1.3,1.5,1.3,2.7,2.6,3.3,1.4.6,3,.5,4.2-.3l5.7,5.7h0c-3.4,3.8-5.4,8.6-5.7,13.7h-8.1c-.4-1.5-1.4-2.7-2.8-3.2s-3-.3-4.2.5c-1.2.9-2,2.3-2,3.8s.7,2.9,2,3.8c1.2.9,2.8,1,4.2.5s2.5-1.7,2.8-3.2h8.1c.2,5.1,2.2,9.9,5.7,13.7l-5.7,5.7h0c-1.3-.8-2.9-.9-4.2-.3-1.4.6-2.4,1.9-2.6,3.3-.3,1.5.2,3,1.3,4.1,1.1,1.1,2.6,1.5,4.1,1.3,1.5-.3,2.7-1.3,3.4-2.6.6-1.4.5-3-.3-4.3l5.7-5.7h0c3.8,3.4,8.6,5.4,13.7,5.7v8.1c-1.5.4-2.7,1.4-3.2,2.8s-.3,3,.5,4.2c.9,1.2,2.3,2,3.8,2s2.9-.7,3.8-2c.9-1.2,1-2.8.5-4.2-.5-1.4-1.7-2.5-3.2-2.8v-8.1c5.1-.2,9.9-2.2,13.7-5.7l5.7,5.7c-.8,1.3-.9,2.9-.3,4.2s1.9,2.4,3.3,2.6c1.5.3,3-.2,4.1-1.3,1.1-1.1,1.5-2.6,1.3-4.1-.3-1.5-1.3-2.7-2.6-3.3s-3-.5-4.2.3l-5.7-5.7h0c3.4-3.8,5.4-8.6,5.7-13.7h8.1c.3,1.1,1,2.1,1.9,2.7,1,.6,2.1.9,3.3.7,1.1-.2,2.2-.8,2.9-1.7.7-.9,1.1-2,1-3.2,0-1.1-.6-2.2-1.5-3-.8-.8-2-1.2-3.1-1.2h-.2ZM72.7,23.9c.5-.5,1.1-.7,1.7-.7s1.2.3,1.7.7c.5.5.7,1.1.7,1.7s-.3,1.2-.7,1.7c-.5.5-1.1.7-1.7.7s-1.2-.3-1.7-.7c-.5-.4-.7-1.1-.7-1.7s.3-1.2.7-1.7h0ZM47.6,15.5c0-.6.3-1.2.7-1.7.5-.5,1.1-.7,1.7-.7s1.2.3,1.7.7c.5.5.7,1.1.7,1.7s-.3,1.2-.7,1.7c-.5.5-1.1.7-1.7.7s-1.2-.3-1.7-.7c-.5-.5-.7-1.1-.7-1.7h0ZM23.9,27.3c-.5-.5-.7-1.1-.7-1.7s.3-1.2.7-1.7c.5-.5,1.1-.7,1.7-.7s1.2.3,1.7.7c.5.5.7,1.1.7,1.7s-.3,1.2-.7,1.7c-.5.4-1.1.7-1.7.7s-1.2-.3-1.7-.7h0ZM15.5,52.4c-.6,0-1.2-.3-1.7-.7-.5-.5-.7-1.1-.7-1.7s.3-1.2.7-1.7c.5-.5,1.1-.7,1.7-.7s1.2.3,1.7.7c.5.5.7,1.1.7,1.7s-.3,1.2-.7,1.7c-.5.5-1.1.7-1.7.7h0ZM27.3,76.1c-.5.5-1.1.7-1.7.7s-1.2-.3-1.7-.7c-.5-.5-.7-1.1-.7-1.7s.3-1.2.7-1.7c.5-.5,1.1-.7,1.7-.7s1.2.3,1.7.7c.5.4.7,1.1.7,1.7s-.3,1.3-.7,1.7h0ZM52.4,84.5c0,.6-.3,1.2-.7,1.7-.5.5-1.1.7-1.7.7s-1.2-.3-1.7-.7c-.5-.5-.7-1.1-.7-1.7s.3-1.2.7-1.7c.5-.5,1.1-.7,1.7-.7s1.2.3,1.7.7c.5.5.7,1.1.7,1.7h0ZM76.1,72.7c.5.5.8,1.3.7,2,0,.7-.5,1.4-1.2,1.8-.6.4-1.4.4-2.1,0s-1.2-.9-1.4-1.6c-.2-.7,0-1.5.4-2.1.5-.6,1.2-.9,1.9-.9s1.2.3,1.7.7h0ZM64,64h0c-3.7,3.7-8.8,5.8-14,5.8s-10.3-2.1-14-5.8c-3.7-3.7-5.8-8.8-5.8-14s2.1-10.3,5.8-14,8.8-5.8,14-5.8,10.3,2.1,14,5.8c3.7,3.7,5.8,8.8,5.8,14s-2.1,10.3-5.8,14h0ZM84.5,52.4c-.6,0-1.2-.3-1.7-.7-.5-.5-.7-1.1-.7-1.7s.3-1.2.7-1.7c.5-.5,1.1-.7,1.7-.7s1.2.3,1.7.7c.5.5.7,1.1.7,1.7s-.3,1.2-.7,1.7c-.5.5-1.1.7-1.7.7h0Z"/>
  <path class="st1" d="M50,36.7c-.2,0-.5,0-.7.2l-10.8,6.7c-.4.2-.6.7-.6,1.2v10.8c0,.5.2.9.6,1.2l10.8,6.7c.5.2,1,.2,1.4,0l10.8-6.7c.4-.2.6-.7.6-1.2v-10.8c0-.5-.2-.9-.6-1.2l-10.8-6.7c-.2-.2-.5-.2-.7-.2Z"/>
  <polygon class="st0" points="50 40.7 57.3 45.3 50 49.9 42.7 45.3 50 40.7"/>
  <polygon class="st0" points="58.7 48.3 58.7 54.9 51.7 59.3 51.7 52.7 58.7 48.3"/>
  <polygon class="st0" points="41.3 48.3 48.3 52.7 48.3 59.3 41.3 54.9 41.3 48.3"/>
</svg>