<?xml version="1.0" encoding="UTF-8"?>
<svg id="Layer_1" xmlns="http://www.w3.org/2000/svg" version="1.1" viewBox="0 0 100 100">
  <!-- Generator: Adobe Illustrator 30.0.0, SVG Export Plug-In . SVG Version: 2.1.1 Build 123)  -->
  <defs>
    <style>
      .st0 {
        stroke: #000;
        stroke-miterlimit: 10;
        stroke-width: 2px;
      }
    </style>
  </defs>
  <path class="st0" d="M60.7,89.5c-.6,0-1.2-.1-1.8-.4-.3-.1-.7-.3-.9-.7-.2-.3-.3-.7-.4-.9l-.3-1.2c-.1-.4-.3-1-.3-1.6,0-1.6,1-3.1,2.5-3.6.1,0,.3,0,.4-.1,0,0,.2,0,.3,0,0,0,0,0,.2-.1.1,0,.2-.2.3-.3.8-.6,1.7-.7,2.4-.7.2,0,.4,0,.6,0,.7-.1,1.6-.3,2.4.4.3.3.7.8.8,1.7,0,.8-.3,1.5-.6,1.9,0,.2-.2.3-.3.5-.2.3-.4.6-.5.8,0,.1,0,.3,0,.4,0,.2,0,.4-.1.5-.3,1.3-1.3,2.4-2.5,3-.6.3-1.3.5-2.1.5h0ZM60.2,86.6c.5.1,1,0,1.4-.1.5-.2.9-.7,1-1.2,0-.1,0-.2,0-.4,0-.3.1-.5.2-.8.2-.6.6-1.1.9-1.5-.1,0-.2,0-.4,0-.4,0-.9,0-1.1.2s0,0-.1.1c-.2.1-.3.3-.5.4-.3.2-.7.3-.9.4,0,0-.2,0-.2,0-.4.1-.7.6-.7,1,0,.2,0,.6.2.9l.3,1ZM62.7,78.2h-.2c-2.7-.2-2.9-2.3-3-3.2,0-.4,0-.6-.1-.8-3.3-.2-4-2.7-4.3-4-.1-.5-.3-1-.4-1.2-.2-.2-.3-.3-1.5.3-.4.2-.9.4-1.5.6-.4.1-.7.6-1.2,1.2-.7,1-1.6,2.4-3.7,2.4-2,0-3.8-1.1-4.7-3l-.2-.4c-.3-.8-.7-1.6-1.2-2.1-1-1.4-1.2-3.3-.4-5,0-.2.1-.3.2-.5.2-.7,0-1.4-.3-1.7-.5-.4-1.3-.1-2.6.3-1.3.4-2.7.9-4.2.5-1.3-.3-2.2-1.2-3-2-.3-.3-.5-.5-.8-.8-1.4-1.2-3.2-1.6-5.2-2.1-2.2-.6-4.6-1.2-6.4-2.9-.6-.5-1-1-1.4-1.6s-.8-1-1.3-1.4c-.3-.3-.7-.6-1.1-.8-1.4-1.1-3.2-2.4-3.2-4.8,0-1.4.7-2.5,1.2-3.5.4-.6.7-1.2.8-1.8.2-.9-.4-1.6-1.3-2.7-1.2-1.4-3-3.6-.9-6.5,1.3-1.8,3.5-2.8,5.7-2.6,1.9.2,3.3,0,3.9-.7.3-.4.4-1,.6-1.7.2-.9.4-2,1.2-2.9,1-1.3,2.6-1.6,3.9-1.9.8-.2,1.5-.3,2.1-.7.2-.2.4-.3.7-.5.6-.5,1.2-1.1,2.2-1.3,2.4-.5,4.3,1.6,5,4,0,.3.2.6.2.9.3,1.2.6,2.3,1.3,2.8.2.1.5.2.8.4.4.2.9.4,1.4.7.9.7,1.3,1.6,1.7,2.3.3.6.6,1.2,1,1.4.3.1.7.2,1.1.2h.5c1.6.2,3.1.7,4.5,1.2.6.2,1.3.5,1.9.6l.6.2c1.5.4,2.3.7,3.2.2,1-.7,2.2-1.2,3-1.4,1.1-.2,2.1-.8,2.8-1.6.3-.3.6-.7,1.1-1,1.3-1,2.9-1.3,4.3-1.5h.4c1.2-.3,2.4-.6,3.1-1.3.3-.3.4-.8.3-1.2,0-.2-.1-.3-.2-.4-.2-.1-.6-.1-1-.2-.3,0-.6,0-.8,0-1.5-.2-2.9-1.3-2.8-2.9,0-.8.5-1.4.8-1.7v-.2c.5-.5.9-.9,1.2-1.2.7-.7,1.1-1.1,1.1-2,0,0-.2-.3-.2-.4-.4-.7-1-1.8-.5-3,.6-1.8,3.4-2.4,4.6-2.6,2.5-.4,4.4,1.3,5.9,2.8.3.3.6.5.8.7,2.1,1.9,5.1,2.8,7.9,2.6.8,0,2.3-.2,3.2.9.5.6.6,1.3.7,1.7.4,2.7-.6,5.5-2.5,7.5-.5.5-1,.9-1.5,1.3-.6.5-1.1.9-1.5,1.4s-.7,1.1-1.1,1.7c-.7,1.2-1.4,2.6-2.9,3.4-1.4.8-2.8.8-4.1.8-.6,0-1.2,0-1.7,0-.7,0-1.5.6-1.8,1.1,0,.2,0,.3,0,.3.2.3,1,.5,1.7.6h.3c2.1.5,3.4,1.7,3.5,3.3,0,.8-.3,1.4-.6,1.9,0,.2-.2.3-.2.5-.3.9.3,2.1,1.1,2.9.3.3.6.7.9,1,.9.9,1.7,1.8,2.3,3,1.7,3.6-.4,7.6-1.5,9.8l-3.4,6.7c-.6,1.3-1.5,3-3.1,4.1-1,.6-2.3.8-3.5,1-2.7.4-4.2.7-4.3,3.3,0,1-.5,1.9-1.2,2.5-.6.6-1.4.9-2.3.9h0ZM62.3,75.4s.1,0,.3,0,.3,0,.4-.2c.2-.1.3-.3.3-.6.2-5.1,4.3-5.6,6.7-6,.9-.1,1.9-.3,2.4-.6.9-.6,1.5-1.6,2.2-3l3.4-6.7c1.2-2.4,2.4-5.2,1.4-7.3-.4-.8-1.1-1.5-1.8-2.2-.4-.4-.7-.7-1-1.1-1.7-1.9-2.2-4-1.6-5.7,0-.2.2-.5.4-.7,0-.2.2-.5.2-.6,0,0-.5-.4-1.2-.6h-.3c-1.2-.3-2.7-.6-3.6-2-.5-.9-.6-2,0-3,.7-1.4,2.3-2.5,3.9-2.7.7,0,1.4,0,2,0,1.1,0,2,0,2.7-.4.8-.4,1.2-1.3,1.8-2.3.4-.7.8-1.5,1.4-2.1.6-.7,1.2-1.3,1.9-1.8.5-.4.9-.7,1.2-1.1,1.3-1.3,2-3.3,1.7-5.2,0-.1,0-.2,0-.2-.2,0-.6,0-.9,0-3.6.3-7.3-.8-10-3.2-.3-.3-.6-.5-.9-.8-1.2-1.2-2.4-2.2-3.5-2.1-1.1.2-2.1.6-2.4.8,0,.2.2.6.4.8.3.5.6,1.1.6,1.7,0,2.1-1.1,3.1-1.9,4-.3.3-.6.6-.8.9l-.2.2s0,0,0,.1c0,0,.2,0,.2,0,.2,0,.4,0,.6,0,.6,0,1.4,0,2.2.5.9.4,1.5,1.3,1.7,2.3.2,1.3-.2,2.6-1,3.6-1.2,1.4-3.1,1.9-4.7,2.2h-.4c-1.2.3-2.3.5-3.1,1.1-.3.2-.5.5-.7.7-1.1,1.2-2.6,2.1-4.2,2.4-.4,0-1.3.4-2.1,1,0,0,0,0-.1,0-1.9,1.1-3.8.5-5.4,0l-.6-.2c-.7-.2-1.4-.5-2.1-.7-1.3-.5-2.5-.9-3.8-1h-.4c-.7,0-1.5-.1-2.2-.5-1.2-.6-1.7-1.7-2.2-2.6-.3-.6-.6-1.1-.9-1.4-.2-.1-.5-.3-.8-.4-.4-.2-.8-.3-1.3-.6-1.6-1-2.1-2.9-2.5-4.4,0-.3-.1-.5-.2-.8-.3-1.1-1.1-2.2-1.8-2.1-.3,0-.6.4-1,.7-.3.3-.6.6-1,.8-1,.6-2,.9-3,1.1-1,.2-1.9.4-2.3,1-.3.4-.5,1-.6,1.7-.2.9-.4,1.9-1.1,2.8-1.7,2.2-4.7,1.9-6.3,1.8-1.3,0-2.5.4-3.2,1.5-.8,1.1-.5,1.6.8,3.1,1,1.2,2.3,2.8,1.9,5-.2,1.1-.7,2-1.2,2.8-.5.7-.8,1.3-.8,2,0,1,.7,1.6,2.1,2.6.4.3.8.6,1.2.9.7.5,1.2,1.2,1.7,1.8.4.5.7.9,1.2,1.3,1.3,1.2,3.2,1.7,5.3,2.2,2.2.6,4.4,1.2,6.3,2.7.3.3.7.6,1,.9.6.6,1.1,1.1,1.7,1.3.7.2,1.7-.1,2.7-.5,1.6-.5,3.5-1.2,5.2.1,1.3,1,1.8,2.8,1.3,4.6,0,.3-.2.6-.3.9-.4.8-.3,1.6.1,2.1.6.8,1.1,1.8,1.4,2.7l.2.4c.4.8,1.2,1.4,2.1,1.4.6,0,.9-.3,1.5-1.2.6-.8,1.3-1.9,2.7-2.3.4-.1.8-.3,1.2-.5,1.2-.5,2.9-1.4,4.6.2.7.7,1,1.7,1.2,2.5.4,1.4.5,2,2.2,2,.3,0,.6,0,.9.2,1.3.9,1.4,2.2,1.4,3.1,0,.2,0,.5,0,.6h0Z"/>
</svg>