<?xml version="1.0" encoding="UTF-8"?>
<svg id="Layer_1" xmlns="http://www.w3.org/2000/svg" version="1.1" viewBox="0 0 100 100">
  <!-- Generator: Adobe Illustrator 30.0.0, SVG Export Plug-In . SVG Version: 2.1.1 Build 123)  -->
  <defs>
    <style>
      .st0 {
        stroke: #000;
        stroke-linejoin: round;
        stroke-width: 2px;
      }
    </style>
  </defs>
  <path class="st0" d="M60.6,15.3H20.7c-4.8,0-8.7,3.9-8.7,8.7v38c0,4.8,3.9,8.7,8.7,8.7h28.7c.7,0,1.3-.6,1.3-1.3s-.6-1.3-1.3-1.3h-28.7c-3.4,0-6.1-2.7-6.1-6.1V24c0-3.4,2.8-6.1,6.1-6.1h7.2v18.8c0,.4.2.8.5,1s.8.3,1.1.2l11.2-3.6,11.2,3.6c.1,0,.3,0,.4,0,.3,0,.5,0,.7-.2.3-.2.5-.6.5-1v-18.8h7.2c3.4,0,6.1,2.8,6.1,6.1v29.5c0,.7.6,1.3,1.3,1.3s1.3-.6,1.3-1.3v-29.5c0-4.8-3.9-8.7-8.7-8.7h0ZM51,35l-9.9-3.2c-.1,0-.3,0-.4,0s-.3,0-.4,0l-9.9,3.2v-17.1h20.6v17.1h0Z"/>
  <path class="st0" d="M57.6,76.4v-15.9c0-.7-.6-1.3-1.3-1.3s-1.3.6-1.3,1.3v15.9c0,.7.6,1.3,1.3,1.3s1.3-.6,1.3-1.3h0Z"/>
  <path class="st0" d="M64.1,59.3c-.7,0-1.3.6-1.3,1.3v15.9c0,.7.6,1.3,1.3,1.3s1.3-.6,1.3-1.3v-15.9c0-.7-.6-1.3-1.3-1.3Z"/>
  <path class="st0" d="M72,59.3c-.7,0-1.3.6-1.3,1.3v15.9c0,.7.6,1.3,1.3,1.3s1.3-.6,1.3-1.3v-15.9c0-.7-.6-1.3-1.3-1.3Z"/>
  <path class="st0" d="M79.8,77.7c.7,0,1.3-.6,1.3-1.3v-15.9c0-.7-.6-1.3-1.3-1.3s-1.3.6-1.3,1.3v15.9c0,.7.6,1.3,1.3,1.3h0Z"/>
  <path class="st0" d="M56.3,52.2h-4.4c-2.1,0-3.8,1.7-3.8,3.8v4.4c0,.7.6,1.3,1.3,1.3s1.3-.6,1.3-1.3v-4.4c0-.7.6-1.3,1.3-1.3h4.4c.7,0,1.3-.6,1.3-1.3s-.6-1.3-1.3-1.3Z"/>
  <path class="st0" d="M56.3,82.1h-4.4c-.7,0-1.3-.6-1.3-1.3v-4.4c0-.7-.6-1.3-1.3-1.3s-1.3.6-1.3,1.3v4.4c0,2.1,1.7,3.8,3.8,3.8h4.4c.7,0,1.3-.6,1.3-1.3s-.6-1.3-1.3-1.3Z"/>
  <path class="st0" d="M86.7,75.2c-.7,0-1.3.6-1.3,1.3v4.4c0,.7-.6,1.3-1.3,1.3h-4.4c-.7,0-1.3.6-1.3,1.3s.6,1.3,1.3,1.3h4.4c2.1,0,3.8-1.7,3.8-3.8v-4.4c0-.7-.6-1.3-1.3-1.3Z"/>
  <path class="st0" d="M84.1,52.2h-4.4c-.7,0-1.3.6-1.3,1.3s.6,1.3,1.3,1.3h4.4c.7,0,1.3.6,1.3,1.3v4.4c0,.7.6,1.3,1.3,1.3s1.3-.6,1.3-1.3v-4.4c0-2.1-1.7-3.8-3.8-3.8Z"/>
</svg>