<?xml version="1.0" encoding="UTF-8"?>
<svg id="Layer_1" xmlns="http://www.w3.org/2000/svg" version="1.1" viewBox="0 0 100 100">
  <!-- Generator: Adobe Illustrator 30.0.0, SVG Export Plug-In . SVG Version: 2.1.1 Build 123)  -->
  <defs>
    <style>
      .st0 {
        fill-rule: evenodd;
        stroke: #000;
        stroke-linejoin: round;
        stroke-width: 1.5px;
      }
    </style>
  </defs>
  <g id="Exp-1.-O">
    <g>
      <g>
        <path class="st0" d="M38,40.5h-7.7c-.6,0-1.1.5-1.1,1.1s.5,1.1,1.1,1.1h7.7c.6,0,1.1-.5,1.1-1.1s-.5-1.1-1.1-1.1h0Z"/>
        <path class="st0" d="M30.4,59.5h7.7c.6,0,1.1-.5,1.1-1.1s-.5-1.1-1.1-1.1h-7.7c-.6,0-1.1.5-1.1,1.1s.5,1.1,1.1,1.1h0Z"/>
        <path class="st0" d="M33.1,41.5v16.9c0,.6.5,1.1,1.1,1.1s1.1-.5,1.1-1.1v-16.9c0-.6-.5-1.1-1.1-1.1s-1.1.5-1.1,1.1h0Z"/>
      </g>
      <path class="st0" d="M60.9,45v10c0,2.5,2,4.5,4.5,4.5h2.8c2.5,0,4.5-2,4.5-4.5v-10c0-2.5-2-4.5-4.5-4.5h-2.8c-2.5,0-4.5,2-4.5,4.5ZM63,55v-10c0-1.3,1.1-2.4,2.4-2.4h2.8c1.3,0,2.4,1.1,2.4,2.4v10c0,1.3-1.1,2.4-2.4,2.4h-2.8c-1.3,0-2.4-1.1-2.4-2.4h0Z"/>
      <path class="st0" d="M55.9,44.1v-2.5c0-.3,0-.6-.3-.8-.2-.2-.5-.3-.8-.3h-6.3c-1.2,0-2.3.5-3.2,1.3-.8.8-1.3,2-1.3,3.2v1.5c0,1.2.5,2.3,1.3,3.2.8.8,2,1.3,3.2,1.3h2.8c.6,0,1.2.3,1.7.7s.7,1.1.7,1.7v1.5c0,.6-.3,1.2-.7,1.7s-1.1.7-1.7.7h-5.2v-1.5c0-.6-.5-1.1-1.1-1.1s-1.1.5-1.1,1.1v2.5c0,.6.5,1.1,1.1,1.1h6.2c1.2,0,2.3-.5,3.2-1.3.8-.8,1.3-2,1.3-3.2v-1.5c0-1.2-.5-2.3-1.3-3.2s-2-1.3-3.2-1.3h-2.8c-.6,0-1.2-.3-1.7-.7s-.7-1.1-.7-1.7v-1.5c0-.6.3-1.2.7-1.7s1.1-.7,1.7-.7h5.2v1.4c0,.6.4,1.1,1,1.1s1.1-.5,1.1-1h.2Z"/>
      <path class="st0" d="M50.1,85.1c-6.7-4.4-12.1-11.1-15.3-19.2-.2-.5-.8-.8-1.4-.6-.5.2-.8.8-.6,1.4,3.4,8.5,9.1,15.6,16.2,20.2.5.3,1.1.2,1.5-.3.3-.5.2-1.1-.3-1.5h-.1Z"/>
      <path class="st0" d="M35.2,33.8c3.4-8,8.9-14.7,15.6-18.9.5-.3.6-1,.3-1.5s-1-.6-1.5-.3c-7.1,4.5-12.9,11.4-16.5,19.9-.2.5,0,1.2.6,1.4.5.2,1.2,0,1.4-.6h0Z"/>
      <path class="st0" d="M50.3,86.9c7.1-4.6,12.7-11.7,16.1-20.3.2-.5,0-1.2-.6-1.4-.5-.2-1.2,0-1.4.6-3.2,8.2-8.6,14.9-15.3,19.3-.5.3-.6,1-.3,1.5s1,.6,1.5.3h0Z"/>
      <path class="st0" d="M66.1,33.2c-3.5-8.5-9.3-15.5-16.5-20.1-.5-.3-1.1-.2-1.5.3-.3.5-.2,1.1.3,1.5,6.8,4.3,12.3,11,15.7,19.1.2.5.8.8,1.4.6.5-.2.8-.8.6-1.4h0Z"/>
      <path class="st0" d="M22.3,76.6c7.8-3.1,17.3-4.9,27.7-4.9s19.9,1.8,27.6,4.9c.5.2,1.2,0,1.4-.6.2-.5,0-1.2-.6-1.4-8-3.2-17.8-5-28.4-5s-20.5,1.9-28.5,5.1c-.5.2-.8.8-.6,1.4.2.5.8.8,1.4.6h0Z"/>
      <path class="st0" d="M21.5,25.6c8,3.2,17.8,5,28.5,5s20.5-1.9,28.5-5.1c.5-.2.8-.8.6-1.4-.2-.5-.8-.8-1.4-.6-7.8,3.1-17.4,4.9-27.7,4.9s-19.9-1.8-27.7-4.9c-.5-.2-1.2,0-1.4.6s0,1.2.6,1.4h0Z"/>
      <path class="st0" d="M48.9,65.9v20c0,.6.5,1.1,1.1,1.1s1.1-.5,1.1-1.1v-20c0-.6-.5-1.1-1.1-1.1s-1.1.5-1.1,1.1Z"/>
      <path class="st0" d="M19.8,48.9h-7.8c-.6,0-1.1.5-1.1,1.1s.5,1.1,1.1,1.1h7.8c.6,0,1.1-.5,1.1-1.1s-.5-1.1-1.1-1.1Z"/>
      <path class="st0" d="M48.9,14v20c0,.6.5,1.1,1.1,1.1s1.1-.5,1.1-1.1V14c0-.6-.5-1.1-1.1-1.1s-1.1.5-1.1,1.1Z"/>
      <path class="st0" d="M87.9,48.9h-7.7c-.6,0-1.1.5-1.1,1.1s.5,1.1,1.1,1.1h7.7c.6,0,1.1-.5,1.1-1.1s-.5-1.1-1.1-1.1Z"/>
      <path class="st0" d="M50,10.9c-21.6,0-39.1,17.5-39.1,39.1s17.5,39.1,39.1,39.1,39.1-17.5,39.1-39.1S71.6,10.9,50,10.9h0ZM50,13c20.4,0,37,16.6,37,37s-16.6,37-37,37S13,70.4,13,50,29.6,13,50,13h0Z"/>
    </g>
  </g>
</svg>