<?xml version="1.0" encoding="UTF-8"?>
<svg id="Layer_1" xmlns="http://www.w3.org/2000/svg" version="1.1" viewBox="0 0 100 100">
  <!-- Generator: Adobe Illustrator 30.0.0, SVG Export Plug-In . SVG Version: 2.1.1 Build 123)  -->
  <path d="M50,30.4c-1.3,0-2.4,1.1-2.4,2.4v17.3c0,.3,0,.6.2.9,0,0,0,0,0,0,.1.3.3.6.5.8l12.2,12.2c.5.5,1.1.7,1.7.7s1.2-.2,1.7-.7c.9-.9.9-2.4,0-3.4l-11.5-11.5v-16.3c0-1.3-1.1-2.4-2.4-2.4h0Z"/>
  <path d="M22.5,51.6c0-1.2-1.1-2.1-2.3-2.1-1.2,0-2.2,1.1-2.1,2.3.5,8.5,4.2,16.4,10.6,22.1,5.9,5.3,13.4,8.1,21.3,8.1s1.2,0,1.8,0c8.5-.5,16.4-4.2,22.1-10.6,5.7-6.4,8.6-14.6,8.1-23.1-.5-8.5-4.2-16.4-10.6-22.1-6.4-5.7-14.6-8.6-23.1-8.1-6.7.4-12.9,2.8-18,6.8l.2-4.7c0-1.2-.9-2.3-2.2-2.3-1.2,0-2.3.9-2.3,2.2l-.3,10c0,1.2.9,2.3,2.2,2.3l10,.3h0c1.2,0,2.2-.9,2.2-2.2,0-1.2-.9-2.3-2.2-2.3h-4.6c4.3-3.5,9.6-5.4,15.2-5.8,7.3-.4,14.4,2.1,19.9,7,5.5,4.9,8.7,11.6,9.1,19,.4,7.3-2.1,14.4-7,19.9-4.9,5.5-11.6,8.7-19,9.1-7.3.4-14.4-2.1-19.9-7-5.5-4.9-8.7-11.6-9.1-19h0Z"/>
</svg>