<?xml version="1.0" encoding="UTF-8"?>
<svg id="Layer_1" xmlns="http://www.w3.org/2000/svg" version="1.1" viewBox="0 0 100 100">
  <!-- Generator: Adobe Illustrator 30.0.0, SVG Export Plug-In . SVG Version: 2.1.1 Build 123)  -->
  <path d="M79.6,38.2c-.6-.6-.9-1.3-.9-2.1v-8.4c0-4.6-3.7-8.3-8.3-8.3h-8.4c-.8,0-1.5-.3-2.1-.9l-5.9-5.9c-3.2-3.2-8.5-3.2-11.7,0l-5.9,5.9c-.6.6-1.3.9-2.1.9h-8.4c-4.6,0-8.3,3.7-8.3,8.3v8.4c0,.8-.3,1.5-.9,2.1l-5.9,5.9c-3.2,3.2-3.2,8.5,0,11.7l5.9,5.9c.6.6.9,1.3.9,2.1v8.4c0,4.6,3.7,8.3,8.3,8.3h8.4c.8,0,1.5.3,2.1.9l5.9,5.9c3.2,3.2,8.5,3.2,11.7,0l5.9-5.9c.6-.6,1.3-.9,2.1-.9h8.4c4.6,0,8.3-3.7,8.3-8.3v-8.4c0-.8.3-1.5.9-2.1l5.9-5.9c3.2-3.2,3.2-8.5,0-11.7l-5.9-5.9ZM81.7,52.1l-5.9,5.9c-1.5,1.6-2.4,3.7-2.4,5.9v8.4c0,1.6-1.3,3-3,3h-8.4c-2.2,0-4.3.9-5.9,2.4l-5.9,5.9c-1.2,1.2-3.1,1.2-4.2,0l-5.9-5.9c-1.6-1.5-3.7-2.4-5.9-2.4h-8.4c-1.6,0-3-1.3-3-3v-8.4c0-2.2-.9-4.3-2.4-5.9l-5.9-5.9c-1.2-1.2-1.2-3.1,0-4.2l5.9-5.9c1.5-1.6,2.4-3.7,2.4-5.9v-8.4c0-1.6,1.3-3,3-3h8.4c2.2,0,4.3-.9,5.9-2.4l5.9-5.9c1.2-1.2,3.1-1.2,4.2,0l5.9,5.9c1.6,1.5,3.7,2.4,5.9,2.4h8.4c1.6,0,3,1.3,3,3v8.4c0,2.2.9,4.3,2.4,5.9l5.9,5.9c1.2,1.2,1.2,3.1,0,4.2h0Z"/>
  <path d="M56.8,41.1l-12.3,12.3-5.2-5.2c-1.1-1-2.7-1-3.7,0-1,1-1,2.7,0,3.7l7.1,7.1c1,1,2.7,1,3.7,0l14.1-14.1c1.1-1,1.1-2.7,0-3.7-1-1.1-2.7-1.1-3.7,0,0,0,0,0,0,0h0Z"/>
</svg>