<?xml version="1.0" encoding="UTF-8"?>
<svg id="Layer_1" xmlns="http://www.w3.org/2000/svg" version="1.1" viewBox="0 0 100 100">
  <!-- Generator: Adobe Illustrator 30.0.0, SVG Export Plug-In . SVG Version: 2.1.1 Build 123)  -->
  <defs>
    <style>
      .st0 {
        fill-rule: evenodd;
      }
    </style>
  </defs>
  <path class="st0" d="M50,13.8c-3.8,0-6.9,3.1-6.9,6.9s0,.5,0,.8l-13.6,9.1c-.4-.4-.9-.8-1.5-1.2-3.3-1.9-7.5-.8-9.4,2.5-1.9,3.3-.8,7.5,2.5,9.4.4.2.8.4,1.2.6v16.2c-.4.1-.8.3-1.2.6-3.3,1.9-4.4,6.1-2.5,9.4,1.9,3.3,6.1,4.4,9.4,2.5.1,0,.2-.1.3-.2l14.8,9.9c.5,3.4,3.4,5.9,6.8,5.9s6.4-2.6,6.8-5.9l14.8-9.9c.1,0,.2.1.3.2,3.3,1.9,7.5.8,9.4-2.5,1.9-3.3.8-7.5-2.5-9.4-.4-.2-.8-.4-1.2-.6v-16.2c.4-.1.8-.3,1.2-.6,3.3-1.9,4.4-6.1,2.5-9.4-1.9-3.3-6.1-4.4-9.4-2.5-.6.3-1.1.7-1.5,1.2l-13.6-9.1c0-.3,0-.5,0-.8,0-3.8-3.1-6.9-6.9-6.9h0ZM50,17.2c1.9,0,3.5,1.5,3.5,3.5s-1.5,3.5-3.5,3.5-3.5-1.5-3.5-3.5,1.5-3.5,3.5-3.5h0ZM44.4,24.7c1.3,1.7,3.3,2.8,5.6,2.8s4.3-1.1,5.6-2.8l13.2,8.8c-.5,1.7-.3,3.6.7,5.3,1.1,1.8,2.8,3,4.7,3.3v15.8c-1.9.4-3.7,1.5-4.7,3.3-1.2,2.1-1.2,4.6-.1,6.6l-13,8.7c-1.1-2.4-3.5-4.1-6.3-4.1s-5.2,1.7-6.3,4.1l-13-8.7c1.1-2,1.1-4.5-.1-6.6-1.1-1.8-2.8-3-4.7-3.3v-15.8c1.9-.4,3.7-1.5,4.7-3.3,1-1.7,1.1-3.6.7-5.3l13.2-8.8ZM24.7,31.9c.6,0,1.1.2,1.6.5,1.7,1,2.2,3.1,1.3,4.7s-3.1,2.2-4.7,1.3c-1.7-1-2.2-3.1-1.3-4.7.7-1.1,1.9-1.8,3.1-1.7h0ZM75.3,31.9c1.2,0,2.4.6,3.1,1.7,1,1.7.4,3.8-1.3,4.7s-3.8.4-4.7-1.3c-1-1.7-.4-3.8,1.3-4.7.5-.3,1.1-.4,1.6-.5h0ZM50,32.7c-.3,0-.6,0-.9.3l-13.8,8.6c-.5.3-.8.9-.8,1.5v13.8c0,.6.3,1.1.8,1.5l13.8,8.6c.6.3,1.3.3,1.8,0l13.8-8.6c.5-.3.8-.9.8-1.5v-13.8c0-.6-.3-1.1-.8-1.5l-13.8-8.6c-.3-.2-.6-.3-.9-.3ZM50,36.5l10.5,6.6-10.5,6.6-10.5-6.6,10.5-6.6ZM62.1,46.2v9.7l-10.4,6.5v-9.7l10.4-6.5ZM37.9,46.2l10.4,6.5v9.7l-10.4-6.5v-9.7ZM24.5,61.2c1.2,0,2.4.6,3.1,1.7,1,1.7.4,3.8-1.3,4.7s-3.8.4-4.7-1.3c-1-1.7-.4-3.8,1.3-4.7.5-.3,1.1-.4,1.6-.5h0ZM75.5,61.2c.6,0,1.1.2,1.6.5,1.7,1,2.2,3.1,1.3,4.7-1,1.7-3.1,2.2-4.7,1.3-1.7-1-2.2-3.1-1.3-4.7.7-1.1,1.9-1.8,3.1-1.7h0ZM50,75.9c1.9,0,3.5,1.5,3.5,3.5s-1.5,3.5-3.5,3.5-3.5-1.5-3.5-3.5h0c0-1.9,1.5-3.4,3.5-3.4h0Z"/>
</svg>